<?xml version="1.0" encoding="UTF-8"?>
<svg width="30px" height="40px" viewBox="0 0 30 40" version="1.1" xmlns="http://www.w3.org/2000/svg" xmlns:xlink="http://www.w3.org/1999/xlink">
    <title>haoma </title>
    <defs>
        <polygon id="path-1" points="0 0 30 0 30 40 0 40"></polygon>
    </defs>
    <g id="页面-1" stroke="none" stroke-width="1" fill="none" fill-rule="evenodd">
        <g id="1-3登录页" transform="translate(-100.000000, -648.000000)">
            <g id="编组-2" transform="translate(60.000000, 618.000000)">
                <g id="haoma-" transform="translate(40.000000, 30.000000)">
                    <g id="编组">
                        <mask id="mask-2" fill="white">
                            <use xlink:href="#path-1"></use>
                        </mask>
                        <g id="Clip-2"></g>
                        <path d="M23.3187461,0 L6.68006676,0 C2.99546558,0 -0.00284884502,3.08923595 -0.00284884502,6.88764213 L-0.00284884502,33.1150493 C-0.00284884502,36.9117428 2.99546558,40 6.68006676,40 L23.3177965,40 C27.0025876,40 30,36.9117428 30,33.1150493 L30,6.88764213 C30.0007121,3.08923595 27.0025876,0 23.3187461,0 Z M1.61781161,29.6599242 L28.3800516,29.6599242 L28.3800516,8.21388637 L1.61781161,8.21388637 L1.61781161,29.6599242 Z M6.68006676,1.67030827 L23.3177965,1.67030827 C25.9969453,1.67030827 28.1896063,3.82747374 28.363006,6.5435781 L1.63485719,6.5435781 C1.80830438,3.82747374 4.00186756,1.67030827 6.68006676,1.67030827 Z M23.3187461,38.3296917 L6.68006676,38.3296917 C3.88834109,38.3296917 1.61781161,35.9905849 1.61781161,33.1150493 L1.61781161,31.3302325 L28.3793396,31.3302325 L28.3793396,33.1150493 C28.3800516,35.9905849 26.1095222,38.3296917 23.3187461,38.3296917 Z" id="Fill-1" fill="#000000" mask="url(#mask-2)"></path>
                    </g>
                    <path d="M13.5483871,35.0000728 C13.5483871,36.1045819 14.4149523,37 15.483871,37 C16.5527427,37 17.4193548,36.1045819 17.4193548,35.0000728 C17.4193548,34.2855046 17.0504318,33.6252836 16.4516833,33.2679995 C15.852747,32.9106668 15.114948,32.9106668 14.5160116,33.2679995 C13.9172631,33.6252836 13.5483871,34.2855046 13.5483871,35.0000728 Z" id="Fill-3" fill="#000000"></path>
                </g>
            </g>
        </g>
    </g>
</svg>