<?xml version="1.0" standalone="no"?><!DOCTYPE svg PUBLIC "-//W3C//DTD SVG 1.1//EN" "http://www.w3.org/Graphics/SVG/1.1/DTD/svg11.dtd"><svg t="1752750891023" class="icon" viewBox="0 0 1024 1024" version="1.1" xmlns="http://www.w3.org/2000/svg" p-id="25970" xmlns:xlink="http://www.w3.org/1999/xlink" width="200" height="200"><path d="M651.904888 903.734916 372.094088 903.734916c-15.46625 0-27.981285 12.515035-27.981285 27.981285 0 15.46625 12.515035 27.981285 27.981285 27.981285l139.795906 0c0.054235 0 0.054235 0 0.10847 0s0.055259 0 0.10847 0l139.795906 0c15.46625 0 27.981285-12.514012 27.981285-27.981285C679.88515 916.249951 667.371138 903.734916 651.904888 903.734916zM136.715243 623.924115c-10.574846-35.523051-16.449647-73.012897-16.449647-111.924115 0-216.361723 175.373193-391.734916 391.734916-391.734916s391.734916 175.373193 391.734916 391.734916c0 38.911218-5.848195 76.401064-16.449647 111.924115l57.738006 0c9.236362-35.850509 14.674211-73.230861 14.674211-111.924115 0-247.237941-200.458521-447.696462-447.696462-447.696462s-447.696462 200.458521-447.696462 447.696462c0 38.693254 5.437849 76.073606 14.673188 111.924115L136.715243 623.924115zM931.714665 679.886685 92.284311 679.886685c-15.46625 0-27.981285 12.515035-27.981285 27.981285 0 15.46625 12.515035 27.981285 27.981285 27.981285l839.431378 0c15.46625 0 27.981285-12.514012 27.981285-27.981285C959.69595 692.40172 947.180915 679.886685 931.714665 679.886685zM847.771835 791.8108 176.227142 791.8108c-15.46625 0-27.981285 12.515035-27.981285 27.981285 0 15.46625 12.515035 27.981285 27.981285 27.981285l671.544693 0c15.46625 0 27.981285-12.514012 27.981285-27.981285C875.753119 804.325835 863.238085 791.8108 847.771835 791.8108z" p-id="25971" fill="#318F80"></path></svg>